<svg width="172" height="64" viewBox="0 0 172 64" fill="none" xmlns="http://www.w3.org/2000/svg">
<path d="M79.6011 38.6835C79.1638 38.6835 78.7638 38.5769 78.4011 38.3635C78.0491 38.1502 77.7664 37.8675 77.5531 37.5155C77.3398 37.1529 77.2331 36.7529 77.2331 36.3155V29.5315C77.2331 29.0942 77.3398 28.6995 77.5531 28.3475C77.7664 27.9849 78.0491 27.6969 78.4011 27.4835C78.7638 27.2702 79.1638 27.1635 79.6011 27.1635H88.7211V29.6595H80.2411C80.0704 29.6595 79.9371 29.7022 79.8411 29.7875C79.7558 29.8729 79.7131 30.0062 79.7131 30.1875V35.6595C79.7131 35.8302 79.7558 35.9635 79.8411 36.0595C79.9371 36.1449 80.0704 36.1875 80.2411 36.1875H88.7211V38.6835H79.6011ZM90.3893 38.6835V27.1635H92.9493L96.8533 31.8195L100.741 27.1635H103.317V38.6835H100.821V30.9555L96.8533 35.6915L92.8693 30.9715V38.6835H90.3893ZM111.569 38.6835L104.897 27.1635H107.777L112.609 35.5315L117.441 27.1635H120.305L113.633 38.6835H111.569ZM121.312 38.6835V27.1635H130.448C130.885 27.1635 131.28 27.2702 131.632 27.4835C131.995 27.6969 132.283 27.9849 132.496 28.3475C132.72 28.6995 132.832 29.0942 132.832 29.5315V36.3155C132.832 36.7422 132.72 37.1369 132.496 37.4995C132.283 37.8622 131.995 38.1502 131.632 38.3635C131.28 38.5769 130.885 38.6835 130.448 38.6835H121.312ZM123.776 36.1875H130.32V29.6595H123.776V36.1875ZM79.5691 58.6835C79.1424 58.6835 78.7478 58.5769 78.3851 58.3635C78.0224 58.1502 77.7344 57.8622 77.5211 57.4995C77.3078 57.1369 77.2011 56.7422 77.2011 56.3155V55.2435H79.6811V56.1875H86.2091V54.1715H79.5691C79.1424 54.1715 78.7478 54.0649 78.3851 53.8515C78.0224 53.6382 77.7344 53.3555 77.5211 53.0035C77.3078 52.6409 77.2011 52.2409 77.2011 51.8035V49.5315C77.2011 49.0942 77.3078 48.6995 77.5211 48.3475C77.7344 47.9849 78.0224 47.6969 78.3851 47.4835C78.7478 47.2702 79.1424 47.1635 79.5691 47.1635H86.3531C86.7798 47.1635 87.1691 47.2702 87.5211 47.4835C87.8838 47.6969 88.1718 47.9849 88.3851 48.3475C88.6091 48.6995 88.7211 49.0942 88.7211 49.5315V50.6035H86.2091V49.6595H79.6811V51.6755H86.3531C86.7798 51.6755 87.1691 51.7822 87.5211 51.9955C87.8838 52.2089 88.1718 52.4969 88.3851 52.8595C88.6091 53.2115 88.7211 53.6062 88.7211 54.0435V56.3155C88.7211 56.7422 88.6091 57.1369 88.3851 57.4995C88.1718 57.8622 87.8838 58.1502 87.5211 58.3635C87.1691 58.5769 86.7798 58.6835 86.3531 58.6835H79.5691ZM92.7231 58.6835C92.3071 58.6835 91.9231 58.5769 91.5711 58.3635C91.2191 58.1502 90.9364 57.8675 90.7231 57.5155C90.5098 57.1635 90.4031 56.7795 90.4031 56.3635V51.7235C90.4031 51.3075 90.5098 50.9235 90.7231 50.5715C90.9364 50.2195 91.2191 49.9369 91.5711 49.7235C91.9231 49.5102 92.3071 49.4035 92.7231 49.4035H97.4911C97.9178 49.4035 98.3071 49.5102 98.6591 49.7235C99.0111 49.9369 99.2884 50.2195 99.4911 50.5715C99.7044 50.9235 99.8111 51.3075 99.8111 51.7235V56.3635C99.8111 56.7795 99.7044 57.1635 99.4911 57.5155C99.2884 57.8675 99.0111 58.1502 98.6591 58.3635C98.3071 58.5769 97.9178 58.6835 97.4911 58.6835H92.7231ZM92.8511 56.2355H97.3631V51.8515H92.8511V56.2355ZM101.513 58.6835V48.6835C101.513 48.2675 101.62 47.8835 101.833 47.5315C102.047 47.1795 102.329 46.8969 102.681 46.6835C103.033 46.4702 103.423 46.3635 103.849 46.3635H107.401V48.8275H103.961V49.4035H107.401V51.8515H103.961V58.6835H101.513ZM111.38 58.6835C110.954 58.6835 110.564 58.5769 110.212 58.3635C109.86 58.1502 109.578 57.8675 109.364 57.5155C109.151 57.1635 109.044 56.7795 109.044 56.3635V46.6515H111.492V49.4035H114.932V51.8515H111.492V56.2355H114.932V58.6835H111.38ZM119.623 58.6835L115.975 49.4035H118.567L120.567 54.2195L122.663 49.4035H125.031L127.271 54.2835L129.127 49.4035H131.719L128.231 58.6835H126.375L123.863 53.1475L121.463 58.6835H119.623ZM134.442 58.6835C134.026 58.6835 133.642 58.5769 133.29 58.3635C132.938 58.1502 132.655 57.8675 132.442 57.5155C132.229 57.1635 132.122 56.7795 132.122 56.3635V51.7235C132.122 51.3075 132.229 50.9235 132.442 50.5715C132.655 50.2195 132.938 49.9369 133.29 49.7235C133.642 49.5102 134.026 49.4035 134.442 49.4035H139.21C139.637 49.4035 140.026 49.5102 140.378 49.7235C140.73 49.9369 141.007 50.2195 141.21 50.5715C141.423 50.9235 141.53 51.3075 141.53 51.7235V56.3635C141.53 56.7795 141.423 57.1635 141.21 57.5155C141.007 57.8675 140.73 58.1502 140.378 58.3635C140.026 58.5769 139.637 58.6835 139.21 58.6835H134.442ZM134.57 56.2355H139.082V51.8515H134.57V56.2355ZM142.794 58.6835V51.7235C142.794 51.3075 142.901 50.9235 143.114 50.5715C143.327 50.2195 143.61 49.9369 143.962 49.7235C144.314 49.5102 144.703 49.4035 145.13 49.4035H150.25V51.8515H145.242V58.6835H142.794ZM151.248 58.6835V46.3635H153.696V52.8115H154.944L158.096 49.4035H160.56V50.2355L157.104 54.0435L160.56 57.8515V58.6835H158.096L154.944 55.2755H153.696V58.6835H151.248Z" fill="white"/>
<path d="M0 5.11893L31.3893 14.2534C31.5709 14.3062 31.7591 14.333 31.9482 14.333H40.4674C40.5753 14.333 40.6831 14.3243 40.7897 14.3069L114.603 2.25233L125.147 0.839856C127.083 0.580452 128.204 2.96591 126.769 4.29139L111.723 18.1878C111.413 18.474 111.007 18.6329 110.585 18.6329C109.169 18.6329 108.39 16.9861 109.289 15.8915L111.423 13.2921C112.57 11.8956 111.423 9.81494 109.63 10.0383L40.6296 18.6329H32.072C31.8022 18.6329 31.5351 18.5783 31.2869 18.4724L0 5.11893Z" fill="white"/>
<path d="M130.744 4.86075L140.112 7.30138L121.736 18.6329H118.854L130.744 4.86075Z" fill="white"/>
</svg>
